<svg width="32" height="32" fill="none" xmlns="http://www.w3.org/2000/svg"><circle cx="16" cy="16" r="16" fill="#fff"/><path d="M23.583 10.5h-.888l-1.842-5.07A2.175 2.175 0 0 0 18.817 4h-1.734C16.488 4 16 4.487 16 5.083s.488 1.084 1.083 1.084h1.734l1.581 4.333h-5.21l-.39-1.083h.097c.596 0 1.083-.488 1.083-1.084 0-.596-.487-1.083-1.083-1.083h-3.228c-.596 0-1.084.487-1.084 1.083s.488 1.084 1.084 1.084h.812l1.972 5.416h-.726c-.477-2.415-2.502-4.203-5.037-4.322C5.654 10.359 3 12.883 3 15.917c0 3.033 2.383 5.416 5.417 5.416 2.665 0 4.82-1.83 5.308-4.333h4.55c.477 2.416 2.503 4.203 5.038 4.323 3.033.14 5.687-2.373 5.687-5.417 0-3.023-2.383-5.406-5.417-5.406ZM9.5 17h1.972c-.455 1.332-1.734 2.253-3.272 2.156-1.614-.098-2.957-1.463-3.033-3.088-.076-1.896 1.376-3.401 3.25-3.401 1.44 0 2.621.899 3.055 2.166H9.5c-.596 0-1.083.488-1.083 1.084 0 .595.487 1.083 1.083 1.083Zm8.775-2.167h-1.517l-.79-2.166h3.282a5.128 5.128 0 0 0-.975 2.166Zm5.178 4.334c-1.668-.065-3.076-1.485-3.12-3.164a3.231 3.231 0 0 1 1.138-2.556l.671 1.841a1.08 1.08 0 0 0 1.387.65 1.08 1.08 0 0 0 .65-1.386l-.682-1.874.01-.011a3.217 3.217 0 0 1 3.326 3.25c0 1.863-1.495 3.315-3.38 3.25Zm-8.536 5.416h-4.334l6.5 3.25v-2.166h4.334l-6.5-3.25v2.166Z" fill="url(#a)"/><defs><linearGradient id="a" x1="16" y1="4" x2="16" y2="27.833" gradientUnits="userSpaceOnUse"><stop stop-color="#FFB60B"/><stop offset="1" stop-color="#E59317"/></linearGradient></defs></svg>