<svg width="140" height="38" fill="none" xmlns="http://www.w3.org/2000/svg"><path d="M11.4 22.7v5.1c0 2.6-1.1 3.5-3 3.5-1.7 0-2.8-1-2.8-3.5V8.6c0-2.5 1.1-3.5 2.9-3.5 1.8 0 2.9 1 2.9 3.5v3.8h5.3V9c0-5.7-2.9-9-8.4-9S0 3.3 0 9v18.5c0 5.7 2.8 9 8.3 9 5.5 0 8.4-3.3 8.4-9v-4.8h-5.3zM32.5.4 38.2 36h-5.6l-1-6.4h-6.9l-1 6.4h-5L24.2.4h8.2zm-4.4 6.3-2.7 18h5.4l-2.6-18H28zM58 36h-5.6c-.3-.9-.5-1.5-.5-4.4V26c0-3.3-1.1-4.5-3.7-4.5h-2V36h-5.5V.4h8.4c5.8 0 8.3 2.7 8.3 8.2v2.8c0 3.7-1.1 6-3.6 7.2 2.8 1.2 3.7 3.9 3.7 7.6v5.5c0 1.7 0 3 .6 4.3zm-9-30.5h-2.7v11h2.2c2 0 3.3-1 3.3-3.8V9.2c0-2.6-.8-3.7-2.8-3.7zm26.1-5L81 36h-5.6l-1-6.4h-6.8l-1 6.4h-5.1L67 .4h8.1zm-4.4 6.2-2.6 18h5.4l-2.7-18zM86.1.4h-5.6L86 36h8.3L99.8.4h-5.1l-4.3 29L86 .4zm27.1 0L119 36h-5.6l-1-6.4h-6.9l-1 6.4h-5L105 .4h8.2zm-4.4 6.3-2.7 18h5.4l-2.6-18h-.1zM134.3 36h5.7V.4h-5v21.3L129.2.4h-7V36h5V10.2l7 25.8z" fill="#9C9C9C"/></svg>