<svg width="152" height="39" fill="none" xmlns="http://www.w3.org/2000/svg"><path fill-rule="evenodd" clip-rule="evenodd" d="M23 16.9h2.7c2.8 0 4.4 3.2 2.5 5.4l-2.6 3a7.4 7.4 0 0 0 2.7 4.7 7.4 7.4 0 0 0 10-.7 7.4 7.4 0 0 0 2-5 2.5 2.5 0 0 1 2.5-2.5 2.5 2.5 0 0 1 2.4 2.4 12.3 12.3 0 0 1-2.3 7.2 12.3 12.3 0 0 1-19.9.2 12.3 12.3 0 0 1-19.8-.2 12.3 12.3 0 0 1-2.4-7.2 2.5 2.5 0 0 1 2.5-2.4 2.5 2.5 0 0 1 2.5 2.4 7.4 7.4 0 0 0 2 5 7.4 7.4 0 0 0 12.7-3.8l-2.7-3.1a3.3 3.3 0 0 1 2.5-5.4H23z" fill="#9C9C9C"/><path d="M34.5 10.3a5 5 0 0 0 5-5 5 5 0 0 0-5-4.9 5 5 0 0 0-4.9 5 5 5 0 0 0 5 4.9zm-23 0a5 5 0 0 0 5-5 5 5 0 0 0-5-4.9 5 5 0 0 0-5 5 5 5 0 0 0 5 4.9zm68-8.7c.7 0 1.3.2 1.8.7.5.4.7 1 .7 1.7v24.3c0 .8-.2 1.3-.6 1.8-.5.4-1.1.6-1.9.6-.7 0-1.3-.2-1.8-.6-.5-.5-.7-1-.7-1.8v-1c-.6 1.1-1.5 2-2.6 2.6a8.3 8.3 0 0 1-11.6-4 13 13 0 0 1-1-5.5c0-2 .3-3.9 1-5.4a8.6 8.6 0 0 1 3.2-3.6 8.4 8.4 0 0 1 4.6-1.3 8 8 0 0 1 3.8 1 6.2 6.2 0 0 1 2.6 2.5V3.9c0-.7.2-1.2.6-1.6.5-.5 1-.7 1.8-.7zM71.8 27c1.6 0 2.9-.6 3.8-1.7a7.4 7.4 0 0 0 1.3-4.7c0-2-.4-3.7-1.3-4.8a4.4 4.4 0 0 0-3.7-1.6c-1.7 0-3 .5-3.8 1.6-1 1-1.4 2.7-1.4 4.7s.5 3.7 1.4 4.8a4.5 4.5 0 0 0 3.7 1.7zm24.5 4c-2 0-3.9-.5-5.4-1.3-1.5-.9-2.7-2-3.6-3.6-.8-1.6-1.2-3.4-1.2-5.5s.4-4 1.2-5.5c.9-1.6 2-2.8 3.6-3.6a11 11 0 0 1 5.4-1.3c2 0 3.8.5 5.3 1.3a8.4 8.4 0 0 1 3.5 3.6c.9 1.6 1.3 3.4 1.3 5.5 0 2-.4 3.9-1.3 5.5a8.4 8.4 0 0 1-3.5 3.6c-1.5.8-3.3 1.2-5.3 1.2zm0-4c1.6 0 2.8-.5 3.7-1.6.9-1.1 1.3-2.7 1.3-4.8 0-2.1-.4-3.7-1.3-4.8a4.5 4.5 0 0 0-3.7-1.7c-1.7 0-3 .6-3.8 1.7-.9 1-1.3 2.7-1.3 4.8 0 2 .4 3.7 1.3 4.8.8 1 2 1.6 3.7 1.6zm31.1-16.7c.8 0 1.4.2 1.9.7.4.4.7 1 .7 1.7v16c0 3.2-1 5.6-2.6 7.2-1.8 1.6-4.3 2.4-7.7 2.4-3 0-5.5-.6-7.4-1.7-1-.6-1.5-1.3-1.5-2.2 0-.5 0-1 .4-1.4.3-.3.6-.5 1.1-.5a31.6 31.6 0 0 1 2 .6 24.2 24.2 0 0 0 2.6 1c.8.2 1.7.3 2.7.3 3.5 0 5.3-1.8 5.3-5.2v-2.6c-.6 1-1.4 2-2.6 2.6-1.1.6-2.4.9-3.9.9-1.7 0-3.3-.5-4.6-1.3-1.4-.8-2.4-2-3.2-3.5-.7-1.5-1.1-3.2-1.1-5.1 0-2 .4-3.7 1-5.2a8.6 8.6 0 0 1 7.8-4.8 8 8 0 0 1 4 1 6 6 0 0 1 2.6 2.5v-1c0-.7.2-1.3.7-1.7.5-.5 1-.7 1.8-.7zM119.8 26c1.7 0 3-.5 3.8-1.6 1-1 1.4-2.5 1.4-4.3 0-2-.4-3.4-1.4-4.4-.9-1-2.1-1.6-3.8-1.6-1.6 0-2.8.5-3.7 1.6-1 1-1.4 2.5-1.4 4.4 0 1.8.4 3.3 1.4 4.3.9 1 2.1 1.6 3.7 1.6zm22.7 4.8c-3 0-5.3-.5-7.1-1.7a2.4 2.4 0 0 1-1.3-2.2c0-.5.1-1 .4-1.3.3-.4.7-.5 1.1-.5.5 0 1.1.2 2 .6l2.3 1c.7.2 1.6.3 2.8.3 1.1 0 2-.2 2.6-.6.7-.4 1-.9 1-1.6 0-.4-.2-.8-.4-1-.3-.3-.7-.6-1.4-.8-.7-.3-1.7-.5-3-.8-2.4-.5-4.2-1.2-5.2-2.1-1-.9-1.6-2.1-1.6-3.7 0-1.2.4-2.3 1-3.2.8-1 1.7-1.7 3-2.3a12.1 12.1 0 0 1 7.5-.4 9.6 9.6 0 0 1 2.8 1.3c1 .5 1.3 1.3 1.3 2.2 0 .5-.1 1-.4 1.3-.3.4-.7.6-1.1.6-.3 0-.6 0-.9-.2a25.9 25.9 0 0 1-1-.6l-2-.9a6 6 0 0 0-2.2-.3c-1 0-1.8.2-2.4.6a2 2 0 0 0-.9 1.7c0 .7.3 1.2 1 1.5.5.4 1.7.7 3.4 1.1 1.8.4 3.2.8 4.3 1.3 1 .5 1.7 1.1 2.2 1.8.4.8.7 1.7.7 2.8 0 1.9-.8 3.4-2.4 4.5a10.1 10.1 0 0 1-6 1.6z" fill="#9C9C9C"/></svg>