<svg width="164" height="38" fill="none" xmlns="http://www.w3.org/2000/svg"><path d="M2.7 30c-.8 0-1.5-.2-2-.7-.5-.5-.7-1.1-.7-2V2.8c0-.8.2-1.5.7-2C1 .5 1.7.3 2.6.3h14.7C19.1.2 20 1 20 2.4c0 1.4-.8 2.1-2.6 2.1h-12v8.1h11.2c1.7 0 2.6.7 2.6 2.2 0 1.4-.9 2.1-2.6 2.1H5.3v10.4c0 .9-.2 1.5-.7 2s-1.1.8-2 .8zm25 0c-.8 0-1.5-.1-2-.6-.5-.4-.7-1-.7-1.8V2.5c0-.8.2-1.4.7-1.9.5-.4 1.2-.6 2-.6s1.3.2 1.8.6c.5.5.8 1 .8 1.9v25c0 .9-.3 1.5-.8 2-.5.4-1.1.6-1.9.6zm24.2-5.8c.5 0 .9.2 1.2.5.3.4.4.9.4 1.5 0 .9-.5 1.6-1.5 2.2a14.7 14.7 0 0 1-6.7 1.8c-3.3 0-6-1-7.9-2.9-1.9-1.9-2.9-4.5-2.9-7.8 0-2.1.5-4 1.3-5.6.8-1.6 2-2.9 3.5-3.8 1.6-.9 3.3-1.3 5.2-1.3 1.9 0 3.5.4 4.9 1.2 1.3.8 2.4 2 3.2 3.4.7 1.5 1 3.3 1 5.3 0 1.2-.4 1.8-1.5 1.8H39.7c.2 2 .7 3.4 1.6 4.3 1 .9 2.3 1.3 4 1.3 1 0 1.8 0 2.4-.3.7-.2 1.5-.5 2.4-1 .8-.4 1.4-.6 1.8-.6zm-7.2-11.7c-1.5 0-2.6.4-3.5 1.3-.8 1-1.3 2.2-1.5 3.9h9.5c0-1.7-.5-3-1.3-3.9a4.1 4.1 0 0 0-3.2-1.3zM75.4 26c.5.5.7 1 .7 1.7 0 .6-.2 1.2-.7 1.7a2.3 2.3 0 0 1-3.5-.2L66 22.6l-6 6.6c-.4.5-1 .8-1.7.8-.6 0-1.2-.2-1.6-.7s-.8-1-.8-1.6c0-.7.3-1.2.8-1.7l6.1-6.7L57 13c-.5-.5-.7-1.1-.7-1.7 0-.7.2-1.2.7-1.7.5-.5 1-.7 1.6-.7.7 0 1.3.3 1.8.8L66 16l5.6-6.2c.5-.5 1.1-.8 1.8-.8s1.2.2 1.6.7c.5.5.8 1 .8 1.7 0 .6-.3 1.2-.8 1.7l-5.8 6.3 6.2 6.7zm23.2-11.5a7 7 0 0 1 5.4 7.3c0 2.5-1 4.4-2.7 5.9a11.6 11.6 0 0 1-7.5 2.1H83c-.8 0-1.5-.2-2-.7-.4-.4-.6-1-.6-1.8V2.8c0-.8.2-1.5.7-2 .4-.4 1-.6 1.9-.6h10.4c3 0 5.5.7 7.2 2a6.7 6.7 0 0 1 2.7 5.7c0 1.6-.4 3-1.3 4.1a7 7 0 0 1-3.4 2.5zm-13-1.8h7c3.7 0 5.5-1.4 5.5-4.2 0-1.4-.4-2.4-1.4-3-.9-.8-2.3-1-4.2-1h-6.8v8.2zm7.6 13c2 0 3.4-.4 4.3-1.1 1-.7 1.4-1.8 1.4-3.3 0-1.5-.5-2.6-1.4-3.3-1-.8-2.3-1.1-4.3-1.1h-7.5v8.7h7.5zm18 4.4c-.8 0-1.4-.2-1.9-.7-.5-.4-.7-1-.7-1.8V2.5c0-.8.2-1.4.7-1.9.5-.4 1.1-.6 1.9-.6s1.4.2 1.9.6c.5.5.7 1 .7 1.9v25c0 .9-.2 1.5-.7 2-.5.4-1.1.6-1.9.6zm17.4 0c-2 0-4-.4-5.5-1.2a9 9 0 0 1-3.7-3.8c-.8-1.6-1.3-3.5-1.3-5.7s.5-4 1.3-5.6a9 9 0 0 1 3.7-3.7c1.6-.9 3.4-1.3 5.5-1.3s4 .4 5.5 1.3a8.7 8.7 0 0 1 3.7 3.7c.9 1.6 1.3 3.5 1.3 5.6s-.4 4-1.3 5.7A8.7 8.7 0 0 1 134 29c-1.5.8-3.4 1.3-5.5 1.3zm0-4c1.7 0 3-.6 3.9-1.7.9-1.1 1.3-2.8 1.3-5 0-2.1-.4-3.7-1.3-4.9a4.6 4.6 0 0 0-3.9-1.7c-1.7 0-3 .6-3.9 1.7-.9 1.2-1.3 2.8-1.3 5 0 2.1.4 3.8 1.3 4.9a4.7 4.7 0 0 0 3.9 1.7zm32.2-17.2c.8 0 1.4.2 1.9.6.5.5.7 1 .7 1.8V28c0 3.3-.9 5.7-2.7 7.3-1.8 1.7-4.4 2.5-8 2.5-3 0-5.5-.6-7.6-1.7-1-.6-1.5-1.4-1.5-2.2 0-.6.1-1.1.4-1.5.3-.4.7-.5 1.2-.5l1 .1 1 .5 2.7 1c.8.2 1.8.3 2.8.3 3.7 0 5.5-1.8 5.5-5.4v-2.7c-.6 1.2-1.5 2-2.7 2.7a9.1 9.1 0 0 1-8.8-.3 9 9 0 0 1-3.2-3.6c-.8-1.6-1.2-3.4-1.2-5.4 0-2 .4-3.8 1.1-5.3a8.9 8.9 0 0 1 8-5c1.6 0 3 .4 4.1 1a6.3 6.3 0 0 1 2.7 2.7v-1.1c0-.7.2-1.3.7-1.8.5-.4 1.1-.6 2-.6zm-8 16.3c1.8 0 3-.6 4-1.7 1-1 1.4-2.6 1.4-4.5 0-2-.5-3.4-1.4-4.5-1-1.1-2.2-1.6-4-1.6a5 5 0 0 0-3.8 1.6c-1 1-1.5 2.6-1.5 4.5 0 2 .5 3.4 1.5 4.5a5 5 0 0 0 3.9 1.7z" fill="#9C9C9C"/></svg>