<svg width="139" height="50" fill="none" xmlns="http://www.w3.org/2000/svg"><path d="M25 10.8 20.2 39h-6.6l1.7-10.2H8.3L6.6 39H0l4.6-28.3h6.6l-2 12h7.2l2-12h6.5zM38.4 39l.2-6.2h-6.1l-1.8 6.2h-7l9.4-28.3h12l.2 28.3h-7zM37 17.7l-3 10H39l.4-10H37zm36.8-7-4.6 28.4h-6.6L58 23.6l-2.5 15.5h-6.6l4.6-28.3h6.8l4.5 14.4 2.4-14.4h6.6zm15.4 0c3.2 0 5.5 1 6.8 2.7 1 1.3 1.5 3 1.5 4.9l-.1 2.2-1.5 8.8c-.5 3-1.7 5.3-3.6 7.1a10.4 10.4 0 0 1-7.3 2.7H74.3L79 10.8h10.2zM87 17h-2.4L82 33h3.5c1.2 0 2-.3 2.7-1a6 6 0 0 0 1.3-3.2l1-6.5c.2-.5.2-1 .2-1.6 0-2.4-1.2-3.7-3.7-3.7zm30.2 22.2H98.8l4.6-28.3h18.4l-1 6.1H109l-.9 5.3h9.7l-1 6.2h-9.7l-.7 4.6H118l-1 6zm20.9 0h-16.7l4.7-28.3h6.5L129 33H139l-1 6zm-64.5 5H137l-2 5.9H71.5l2-5.9zM7 0h69.5l-2 5.9H5L7 0z" fill="#9C9C9C"/></svg>