<svg width="208" height="41" fill="none" xmlns="http://www.w3.org/2000/svg"><g clip-path="url(#a)"><path fill-rule="evenodd" clip-rule="evenodd" d="M14 36.1a.9.9 0 0 1-.7-.3 2.4 2.4 0 0 1-.5-1 14 14 0 0 1-.3-1.5 17.4 17.4 0 0 1 0-1.9 112.8 112.8 0 0 1 0-4.1V9.6a85.5 85.5 0 0 1 .3-4.3c0-.3.2-.6.4-.8.1-.3.4-.5.6-.6l1-.5a6.3 6.3 0 0 1 1.3-.3 38 38 0 0 1 1.7-.2V1.5l-.5-.5H1.4l-.4.5v1.2c2.7.2 4.2 1 4.5 2.3.2 1.1.2 2.3.2 3.4v24.2a24.2 24.2 0 0 1-.1 3.7l-.3.5a9.9 9.9 0 0 1-.7.7 8.5 8.5 0 0 0-.5.6v.9c13.6 0 22 0 25.2.3l1.2-3.9-.7-.5c-5.3.7-10.6 1-15.9 1.2zm25.2-11a.7.7 0 0 1-.2 0c-.2 0-.4 0-.4-.3a17.6 17.6 0 0 1 1-5.4 10.5 10.5 0 0 1 1.3-2.5 6.3 6.3 0 0 1 5.1-2.5 4.1 4.1 0 0 1 3.7 1.8 7.3 7.3 0 0 1 1.3 4.2 1.3 1.3 0 0 1-1 1.2 43 43 0 0 1-4.3 1.5 297.1 297.1 0 0 0-6.3 2 .7.7 0 0 0-.2 0zm15.7 8.2c-3.2 2-6 2.9-8.2 2.9a7.5 7.5 0 0 1-4.4-1.3 7.8 7.8 0 0 1-2.8-3.2 10 10 0 0 1-.9-4.2L56 22a2 2 0 0 0 1.6-2 7.5 7.5 0 0 0-.9-3.7 6.4 6.4 0 0 0-2.4-2.5 11.6 11.6 0 0 0-3.2-1.3 16.6 16.6 0 0 0-3.8-.4 16 16 0 0 0-6.7 1.3 12.7 12.7 0 0 0-4.7 3.6 16.2 16.2 0 0 0-2.8 5 18 18 0 0 0-1 5.9c0 4 1.2 7 3.4 9.1 2 1.9 4.8 2.8 8.4 2.8a13.6 13.6 0 0 0 6-1.5 46 46 0 0 0 6.3-3.8l-.5-1-.8-.3zM90.4 5.5a7.7 7.7 0 0 0-4-4.2A16.4 16.4 0 0 0 79.6 0a20.5 20.5 0 0 0-5.2.6 15.8 15.8 0 0 0-4.4 2A9.2 9.2 0 0 0 66.7 6a10.3 10.3 0 0 0-1.2 5 7.7 7.7 0 0 0 .9 3.6 10 10 0 0 0 2.2 2.9 27 27 0 0 0 3 2.3 36.2 36.2 0 0 0 3.5 2 59 59 0 0 1 3.2 1.8c.9.5 1.7 1.1 2.5 1.8 2 1.8 3 3.5 3 5.2a6.4 6.4 0 0 1-2.1 4.6 6.7 6.7 0 0 1-4.9 2 7 7 0 0 1-5.6-2.5 8.7 8.7 0 0 1-2.1-5.8l-1-.4-5.3 6a12.3 12.3 0 0 0 4.7 4 13.8 13.8 0 0 0 6.2 1.4 19.6 19.6 0 0 0 5.8-1 21.3 21.3 0 0 0 5.3-2.4 12.9 12.9 0 0 0 4-3.9 9.2 9.2 0 0 0 1.5-5 7.8 7.8 0 0 0-.5-2.8 9 9 0 0 0-1.3-2.3 11.5 11.5 0 0 0-2.2-2.1 28.2 28.2 0 0 0-2.8-1.9 96.3 96.3 0 0 0-3.6-1.9 45.5 45.5 0 0 1-2.4-1.3 29.3 29.3 0 0 1-2.2-1.4 11.1 11.1 0 0 1-2-1.8 8.1 8.1 0 0 1-1.3-2 6.3 6.3 0 0 1-.5-2.6A5.4 5.4 0 0 1 73 3.6 5.4 5.4 0 0 1 77 2a6.3 6.3 0 0 1 5 2.1 9.2 9.2 0 0 1 2.3 5l1 .4 5-4zm25.6 10a5.3 5.3 0 0 0-2-1.9 9.5 9.5 0 0 0-2.6-1 13.4 13.4 0 0 0-3-.3c-1.9 0-3.8.3-5.6 1a12.2 12.2 0 0 0-4.2 2.5 13.8 13.8 0 0 0-2.7 3.7 17.8 17.8 0 0 0-1.6 4.5 23 23 0 0 0-.5 4.7c0 1.3.2 2.7.6 4 .4 1.2 1 2.4 1.7 3.5a7.8 7.8 0 0 0 3.1 2.5c1.4.7 3 1 4.5 1 5 0 9.6-2.2 14-6.6l-.6-.7-.6-.2a15 15 0 0 1-9 3.7 6.3 6.3 0 0 1-2.9-.6 6 6 0 0 1-2-1.8 10.6 10.6 0 0 1-1.4-2.5 13.2 13.2 0 0 1-.8-2.7 16.8 16.8 0 0 1 .1-6c.2-1.2.5-2.4 1-3.6a7.6 7.6 0 0 1 1.8-3 4 4 0 0 1 2.9-1.3 3.9 3.9 0 0 1 3.6 2 9.3 9.3 0 0 1 1.1 4.8l1 .4 5-3a6.7 6.7 0 0 0-.9-3zm9.7 8a16.2 16.2 0 0 1 2-5.8 6.1 6.1 0 0 1 2-2 5.6 5.6 0 0 1 2.9-.7 5.8 5.8 0 0 1 3.1.8 5.5 5.5 0 0 1 2 2.3c.6 1 1 2 1.1 3l.3 3.5v2.7a32.3 32.3 0 0 1-.2 2.5c0 .8-.2 1.6-.4 2.5l-.8 2a5.2 5.2 0 0 1-1.3 1.7 6.3 6.3 0 0 1-1.9 1 7.3 7.3 0 0 1-2.5.5 4.7 4.7 0 0 1-2.7-.8 6 6 0 0 1-2-2 12.5 12.5 0 0 1-1-2.8 18.3 18.3 0 0 1-.7-2.9 22 22 0 0 1-.1-2.5 24.3 24.3 0 0 1 .2-3zM122.4 37c2 1.8 5 2.6 9.1 2.6 1.6 0 3-.1 4.6-.5a13.5 13.5 0 0 0 4-1.7 11.8 11.8 0 0 0 3.1-3 13.7 13.7 0 0 0 2.1-4.3 21 21 0 0 0 .8-5.9 11 11 0 0 0-3.6-8.5c-2.2-2-5.4-3-9.6-3-4.2 0-7.6 1.3-10.3 4a13 13 0 0 0-4 9.7c0 4.7 1.2 8.3 3.8 10.6zm41.2-21c1.5 0 2.5.4 3 1 .6.6 1 1.4 1 2.3.3 1 .4 2 .5 3.1v3.6a467.9 467.9 0 0 1 0 5.7 54.7 54.7 0 0 0 .3 5c0 .4.2.8.4 1 .1.3.3.6.6.8a4 4 0 0 0 2.9 1c1.3 0 2.8-.6 4.5-2a49.7 49.7 0 0 0 4-3.7l-.5-1h-.7a6.4 6.4 0 0 1-3.6 1.5 2 2 0 0 1-1.5-.6 2 2 0 0 1-.5-.5 3.8 3.8 0 0 1-.3-1 15.3 15.3 0 0 1 0-2.4v-2.8a70.2 70.2 0 0 0 .1-2.7v-5.2a25.1 25.1 0 0 0-.3-2.7 5 5 0 0 0-.8-2.3 5.5 5.5 0 0 0-1.7-1.3 5.7 5.7 0 0 0-2.7-.5c-3 0-6.6 1.2-10.7 3.8l-.6-.3a5 5 0 0 0-1-2.7c-.5-.6-1.4-1-2.6-1a7.2 7.2 0 0 0-2.3.4l-2.3 1.1a36 36 0 0 0-4.2 3l1 1.3a35 35 0 0 1 .6-.3l.8-.5.8-.4.9-.4.7-.2.9.3c.2.1.4.4.5.7l.4 1 .2 1.3a37 37 0 0 1 0 3.2v.4L151 39l.7.3 6-1.7c-.2-.7-.4-3.1-.5-7.1a519.8 519.8 0 0 1 0-11.8c3-1.7 5.1-2.5 6.4-2.5zm25.6 9.1a.7.7 0 0 1-.1 0c-.3 0-.4 0-.4-.3a17.5 17.5 0 0 1 1-5.3c.2-1 .7-1.8 1.3-2.6a6.3 6.3 0 0 1 5-2.5 4.1 4.1 0 0 1 3.7 1.8 7.2 7.2 0 0 1 1.3 4.2 1.3 1.3 0 0 1-.9 1.2 43.2 43.2 0 0 1-4.4 1.5 295.7 295.7 0 0 0-6.3 2 .8.8 0 0 0-.2 0zm15.7 8.2c-3.2 2-6 3-8.2 3a7.5 7.5 0 0 1-4.4-1.4 7.8 7.8 0 0 1-2.7-3.2 10 10 0 0 1-1-4.2l17.5-5.4a2 2 0 0 0 1.5-2 7.5 7.5 0 0 0-.9-3.7 6.4 6.4 0 0 0-2.3-2.5 11.6 11.6 0 0 0-3.3-1.3 16.6 16.6 0 0 0-3.8-.4 16 16 0 0 0-6.6 1.4 12.7 12.7 0 0 0-4.8 3.5 16.2 16.2 0 0 0-2.7 5 18 18 0 0 0-1 5.9c0 4 1.1 7.1 3.3 9.1 2 1.9 4.8 2.8 8.4 2.8a13.6 13.6 0 0 0 6-1.5 46.2 46.2 0 0 0 6.4-3.8l-.6-1-.8-.3z" fill="#9C9C9C"/></g><defs><clipPath id="a"><path fill="#fff" d="M0 0h208v41H0z"/></clipPath></defs></svg>