<svg width="148" height="36" fill="none" xmlns="http://www.w3.org/2000/svg"><path d="M48.62 35.52V0h-8.97L20.88 27.4l-3.17-3.98c5.67-.86 8.83-5.85 8.83-11.18 0-5.09-2.78-9.36-6.52-11C18.14.45 15.36 0 11.66 0H0v35.52h8.69V24.05h.1l8.2 11.47h9.17l3.12-5.14h10.27v5.14h9.07zM8.7 17.86v-9.9h3.45c3.41 0 5.72 1.74 5.72 4.8 0 3.27-2.16 5.1-5.76 5.1H8.69zm30.86 5.32H33.6l5.86-9.84h.1v9.84zm45.48 12.34V0h-8.69l.39 22.46L62.9 0h-7.82v35.52h8.69l-.24-21.7 13.63 21.7h7.87zm26.2 0v-7.97h-11.04v-6.1h10.7V13.5h-10.7V7.97h11.04V0H91.5v35.52h19.73zm36.06 0-12.53-17.8L146.52 0h-9.5l-10.03 15.98h-.1V0h-9.07v35.52h9.07V20.16h.1l9.7 15.36h10.6z" fill="#9C9C9C"/></svg>