<svg width="200" height="49" fill="none" xmlns="http://www.w3.org/2000/svg"><path d="M54.38 44.01c-3.32 0-5.86-.56-7.64-1.7a5.77 5.77 0 0 1-2.6-5.11 3.7 3.7 0 0 1 1.13-2.8c.8-.75 1.8-1.13 3.04-1.13.73.03 1.28.22 1.66.56.38.32.57.62.57.9 0 .04-.16.15-.48.34-.31.19-.6.47-.85.85s-.38.9-.38 1.56c0 1.48.44 2.64 1.33 3.46.92.79 2.32 1.18 4.22 1.18a7.3 7.3 0 0 0 3.42-.76 5.5 5.5 0 0 0 2.23-1.99c.53-.85.8-1.73.8-2.65 0-1.13-.33-2.11-1-2.93a7.8 7.8 0 0 0-2.37-2.04 36.87 36.87 0 0 0-3.89-1.94 46.78 46.78 0 0 1-4.6-2.32 9.9 9.9 0 0 1-2.99-2.75 7.3 7.3 0 0 1-1.23-4.3c0-2.75.93-4.8 2.8-6.16 1.9-1.36 4.38-2.04 7.45-2.04 2.4 0 4.49.5 6.26 1.52a4.83 4.83 0 0 1 2.7 4.45 3.8 3.8 0 0 1-1.18 2.84 4.14 4.14 0 0 1-3 1.09 2.74 2.74 0 0 1-1.65-.52c-.38-.35-.57-.66-.57-.95 0-.03.2-.14.62-.33a3 3 0 0 0 1.13-.85c.35-.38.53-.9.53-1.56a3.2 3.2 0 0 0-1.38-2.75c-.89-.66-2.02-1-3.42-1-1.92 0-3.4.46-4.4 1.38a4.28 4.28 0 0 0-1.48 3.31c0 1.1.3 2.04.9 2.8.6.72 1.57 1.45 2.9 2.17a61.23 61.23 0 0 0 3.5 1.7 37.5 37.5 0 0 1 4.8 2.52 9.62 9.62 0 0 1 2.99 2.98 8.09 8.09 0 0 1 1.23 4.6c0 1.57-.5 3-1.52 4.3a9.86 9.86 0 0 1-4.03 2.99 13.82 13.82 0 0 1-5.55 1.09zm24.01-.37a6.82 6.82 0 0 1-5.12-1.95 7 7 0 0 1-1.9-5.11v-8.76c0-.82-.03-1.42-.1-1.8a1.41 1.41 0 0 0-.56-1c-.35-.28-.93-.42-1.75-.42a2.1 2.1 0 0 1-.86-.14c-.19-.13-.28-.4-.28-.8a.8.8 0 0 1 .19-.53c.12-.19.31-.3.57-.33 1.99-.28 3.7-.7 5.12-1.23.44-.16.8-.25 1.09-.28h.14c.5 0 .76.3.76.9v14.34a4.2 4.2 0 0 0 1.38 3.37 4.84 4.84 0 0 0 3.17 1.13c1.49 0 2.75-.36 3.8-1.09s1.74-1.45 2.08-2.18v-9.94c0-.82-.03-1.42-.09-1.8a1.42 1.42 0 0 0-.57-1c-.35-.28-.93-.42-1.75-.42a2.1 2.1 0 0 1-.86-.14c-.19-.13-.28-.4-.28-.8a.8.8 0 0 1 .19-.53c.12-.19.31-.3.57-.33 1.99-.28 3.7-.7 5.12-1.23.44-.16.8-.25 1.09-.28h.14c.5 0 .76.3.76.9v16.38c0 1.86 1.25 2.8 3.75 2.8.54 0 .8.3.8.9 0 .43-.26.7-.8.8l-7.64.52c-.22 0-.35-.08-.38-.24a3.6 3.6 0 0 1-.04-.7v-2.66h-.1a57.45 57.45 0 0 1-2.23 1.99c-.57.44-1.31.82-2.23 1.14a8.7 8.7 0 0 1-3.18.52zm19.2-.43a.72.72 0 0 1-.57-.28 1.17 1.17 0 0 1-.19-.67c.03-.4.13-.64.29-.7.15-.1.44-.15.85-.15.82 0 1.4-.14 1.75-.43.35-.28.54-.61.57-.99.07-.38.1-.98.1-1.8V27.35c0-.82-.03-1.42-.1-1.8a1.41 1.41 0 0 0-.57-1c-.34-.28-.93-.42-1.75-.42-.38 0-.66-.05-.85-.14-.2-.13-.29-.4-.29-.81a.8.8 0 0 1 .2-.52c.12-.19.3-.3.56-.33 2.06-.32 3.75-.73 5.08-1.23.53-.16.9-.26 1.09-.29h.14c.5 0 .76.3.76.9v2.94h.14c1.1-1.1 2.23-1.97 3.37-2.6a6.2 6.2 0 0 1 3.08-1c1.04 0 1.87.4 2.47 1.18a4.02 4.02 0 0 1 .14 5.02 2.66 2.66 0 0 1-2.23 1.04 2.44 2.44 0 0 1-1.19-.28c-.31-.19-.49-.35-.52-.47.03-.07.2-.26.48-.57.28-.35.42-.74.42-1.18 0-.57-.15-1.03-.47-1.38a1.45 1.45 0 0 0-1.19-.52c-.53 0-1.21.27-2.04.8-.82.51-1.63 1.16-2.42 1.95v11.55c0 .82.04 1.42.1 1.8.06.38.27.71.62 1 .34.28.93.42 1.75.42h.29c.25 0 .44.05.56.14.13.1.21.33.24.71 0 .26-.06.48-.19.67a.64.64 0 0 1-.57.28 97.38 97.38 0 0 0-4.98-.14c-1.42 0-3.06.04-4.93.14zm73.67.43a10.9 10.9 0 0 1-5.74-1.52 11.3 11.3 0 0 1-3.94-4.07 11.23 11.23 0 0 1-1.37-5.4c0-2.37.55-4.42 1.66-6.15a11.18 11.18 0 0 1 4.22-4.03 10.64 10.64 0 0 1 10.91.14 10.47 10.47 0 0 1 3.89 4.07 10.67 10.67 0 0 1 1.42 5.35c0 2.37-.57 4.44-1.7 6.2a11.69 11.69 0 0 1-4.23 4.03 10.7 10.7 0 0 1-5.12 1.38zm0-1.76c2.15 0 3.71-.91 4.7-2.74 1-1.83 1.51-4.2 1.51-7.1 0-2.72-.52-4.93-1.56-6.64a5.02 5.02 0 0 0-4.65-2.6 5 5 0 0 0-4.75 2.7c-.98 1.8-1.47 4.15-1.47 7.06 0 2.71.51 4.95 1.52 6.72a5.06 5.06 0 0 0 4.7 2.6zm23 2a5.37 5.37 0 0 1-3.98-1.71c-1.11-1.14-1.66-2.76-1.66-4.88V23.37l-2.76.1a.58.58 0 0 1-.47-.24 1.08 1.08 0 0 1-.19-.62c0-.28.05-.52.14-.7a.7.7 0 0 1 .52-.39 6.02 6.02 0 0 0 2.57-1.04 4.89 4.89 0 0 0 1.37-1.6c.29-.6.63-1.5 1.05-2.7.15-.42.5-.62 1.04-.62.22 0 .44.06.66.19.22.1.33.25.33.47l-.33 5.4 5.55-.33h.1c.4 0 .61.3.61.9 0 .34-.06.67-.19.99-.09.28-.22.43-.37.43l-5.32-.15v14.4c0 1.04.2 1.9.62 2.6.44.7 1.15 1.04 2.13 1.04a6.2 6.2 0 0 0 2.61-.52c.41-.15.67-.23.76-.23.22 0 .4.1.52.28.13.16.26.38.38.66a.54.54 0 0 1 .05.24c0 .13-.1.27-.28.43-.92.6-1.8 1-2.61 1.18-.8.22-1.74.33-2.85.33zm-76.66-.96c.12.2.31.29.57.29a94.67 94.67 0 0 1 4.93-.14c2.12 0 4.1.04 5.93.14a.6.6 0 0 0 .52-.29c.13-.19.19-.4.19-.66-.03-.38-.11-.61-.24-.7-.1-.1-.28-.15-.57-.15h-.28a7.35 7.35 0 0 1-2.23-.24 1.42 1.42 0 0 1-.9-.85 6.9 6.9 0 0 1-.24-2.13V23.46h5.03a.72.72 0 0 0 .57-.28 1 1 0 0 0 .23-.66c-.03-.38-.12-.62-.28-.71-.13-.13-.33-.2-.62-.2h-4.93v-2.83c0-1.52.06-2.85.19-3.98a7.67 7.67 0 0 1 1.1-3.22c.6-.98 1.52-1.47 2.79-1.47.14 0 .29 0 .42.03a8.03 8.03 0 0 1 .1-1.59 8.03 8.03 0 0 0-.19 0 7.91 7.91 0 0 0-6.5 3.17c-1.51 2.02-2.27 4.66-2.27 7.9v2h-2.85c-.41 0-.7.04-.85.14-.16.06-.26.31-.29.76 0 .25.07.47.2.66.15.19.36.28.6.28h3.19V38.2c0 .85-.04 1.47-.1 1.85-.03.34-.22.66-.57.94-.35.29-.93.43-1.75.43-.41 0-.7.05-.86.14-.12.07-.2.3-.23.71 0 .26.06.48.19.67z" fill="#9C9C9C"/><path fill-rule="evenodd" clip-rule="evenodd" d="M142.95 9.87a5.26 5.26 0 0 1-5.27 5.26 5.27 5.27 0 0 1-5.27-5.27 5.27 5.27 0 0 1 5.27-5.26 5.26 5.26 0 0 1 5.27 5.27zm-5.27 2.63a2.63 2.63 0 0 0 2.64-2.63 2.63 2.63 0 0 0-2.64-2.64 2.63 2.63 0 0 0-2.63 2.63 2.63 2.63 0 0 0 2.63 2.64zm-2.3 4.91v25.37c0 .29.07.5.23.67.16.19.38.28.66.28.29 0 .52-.13.71-.38.2-.22.37-.55.53-1 .16-.43.3-.78.42-1.03h.24a11.8 11.8 0 0 0 7.3 2.32c1.9 0 3.69-.51 5.36-1.52a11.52 11.52 0 0 0 5.5-9.94c0-2.15-.43-4.06-1.32-5.73a9.4 9.4 0 0 0-15.18-2.65h-.14v-6.3a7.98 7.98 0 0 1-4.32-.09zm14.32 22.01a5.37 5.37 0 0 1-4.65 2.6 5.45 5.45 0 0 1-2.7-.66 6.47 6.47 0 0 1-1.85-1.56 4.55 4.55 0 0 1-.81-1.7V25.6a6.61 6.61 0 0 1 5.03-2.18c2.24 0 3.93.88 5.07 2.65a11.23 11.23 0 0 1 1.7 6.3c0 2.93-.6 5.28-1.8 7.05zM12.7.37a1.98 1.98 0 0 1 2.3 0c8.56 6.1 12.44 13.42 12.68 23.92.12 5.01-.37 9.6-1.84 13.56a24.9 24.9 0 0 1-8.14 10.73 1.98 1.98 0 0 1-1.76.34c-1.21-.34-1.42-1.78-2.1-2.67-.67.9-.87 2.33-2.08 2.67a1.98 1.98 0 0 1-1.76-.34 24.88 24.88 0 0 1-8.14-10.72C.39 33.88-.1 29.3.02 24.28.26 13.79 4.14 6.47 12.7.37zm4.43 43.7a18.63 18.63 0 0 0 5.01-7.6c1.32-3.48 1.7-7.33 1.6-12.1-.2-8.18-2.12-13.5-7.93-18.45v14.47c2.27.58 3.3 2.8 3.3 5.26 0 2.45-1.03 4.67-3.3 5.26v11.84s1.05.97 1.32 1.31zm-6.6 0a18.55 18.55 0 0 1-4.97-7.6c-1.33-3.48-1.7-7.33-1.6-12.1.2-8.16 2.1-13.51 7.9-18.45v14.47c-2.28.58-3.3 2.8-3.3 5.26 0 2.45 1.02 4.67 3.3 5.26v11.84s-1.07.98-1.32 1.31zm3.3-21.05a2.63 2.63 0 0 0-2.63 2.63 2.63 2.63 0 0 0 2.63 2.63 2.63 2.63 0 0 0 2.64-2.63 2.63 2.63 0 0 0-2.64-2.63z" fill="#9C9C9C"/></svg>