<svg width="196" height="34" fill="none" xmlns="http://www.w3.org/2000/svg"><path d="M21.64 32.95a6.99 6.99 0 0 1-3.38-.76 6.87 6.87 0 0 1-2.57-2.3 11.63 11.63 0 0 1-7.47 3.07c-4.99 0-7.69-3.47-6.78-8.44.7-3.73 3.8-7.47 4.67-10.48-1.68-1-4.17-1.7-5.34.35L0 13.94c.61-2.26 2.1-3.76 4.23-3.76 2.13 0 3.71 1.25 5.75.1h1.63c-.87 4.5-3.06 8.1-4.23 14.39-.71 3.86.61 5.61 2.85 5.61a6.79 6.79 0 0 0 4.27-2.26 18 18 0 0 1-1.32-6.91c0-5.47 2.55-11.24 6.82-11.24 2.2 0 3.82 1.5 3.82 5.07 0 3.56-2.2 9.07-4.99 12.54a3.6 3.6 0 0 0 1.24 2.1c.65.55 1.47.85 2.32.86 4.08 0 6.92-6.02 6.92-11.6s-2.44-5.3-2.23-7.19a1.79 1.79 0 0 1 .62-1.22c.37-.31.84-.47 1.32-.43 1.27 0 2.94 1.58 2.94 8 0 8.19-4.42 14.96-10.32 14.96zm-.92-20.26c-1.27 0-2.5 4.62-2.65 9.39a20.14 20.14 0 0 0 .06 3.06 23.76 23.76 0 0 0 3.41-10.29c0-1.62-.3-2.16-.82-2.16zm19.6 20.06a3.7 3.7 0 0 1-1.57-.18 3.66 3.66 0 0 1-1.35-.83 3.6 3.6 0 0 1-.87-1.3 3.55 3.55 0 0 1-.22-1.55c0-2.2 2.9-13.2 2.9-15 0-.85-.2-1.36-.96-1.36a4.45 4.45 0 0 0-2.3 1.1v-1.55a7.54 7.54 0 0 1 4.84-1.95 3.75 3.75 0 0 1 1.59.2 3.72 3.72 0 0 1 2.21 2.16c.19.5.26 1.03.22 1.55 0 2.2-2.9 13.15-2.9 14.95 0 .85.2 1.36.97 1.36a4.8 4.8 0 0 0 2.29-1.06v1.5a7.44 7.44 0 0 1-4.84 1.96zM43.9 1a2.78 2.78 0 0 1 2.12.89 2.66 2.66 0 0 1 .68 2.17 3.44 3.44 0 0 1-1.12 2.16 3.54 3.54 0 0 1-2.28.9 2.78 2.78 0 0 1-1.16-.22 2.74 2.74 0 0 1-.96-.67 2.66 2.66 0 0 1-.69-2.17 3.44 3.44 0 0 1 1.13-2.16 3.54 3.54 0 0 1 2.28-.9zm11.3 27.03c-.25 1.36-.1 2.3.87 2.3a4.6 4.6 0 0 0 2.3-1.05l.09 1.51a7.54 7.54 0 0 1-4.84 1.96c-3.16 0-4.39-2.26-3.92-5.07l3.1-17.4c1.04-5.82.68-6.58-2.48-6.58l.2-1.4 9.53-1.25-4.84 26.98zM82 28c-.26 1.36-.16 2.36.86 2.36a4.86 4.86 0 0 0 2.3-1.11v1.56a7.37 7.37 0 0 1-4.85 1.95 3.7 3.7 0 0 1-2.53-.77 3.59 3.59 0 0 1-1.34-2.25 8.29 8.29 0 0 1-2.88 2.38 8.42 8.42 0 0 1-3.64.88c-6.06 0-8.6-5.26-7.43-11.59 1.16-6.32 6.62-11.48 12.78-11.48a8.68 8.68 0 0 1 4.2.98l.15-.8c1.2-6.2.65-6.4-2.51-6.4l.15-1.4 9.57-1.25L81.98 28zm-6.57-15.8c-3.52 0-5.86 4.1-6.78 9.17-.97 5.32-.36 9 2.95 9 2.24 0 4.78-2.7 5.55-6.82l1.88-10.44a6.53 6.53 0 0 0-3.6-.92zm22.65 20.8c-7.08 0-9.01-5.01-8.14-9.82l2.3-12.9c1.08-5.81.72-6.62-2.44-6.62l.2-1.4 9.55-1.2-1.93 10.93a8.61 8.61 0 0 1 5.34-2.06c6.16 0 9.06 5.17 7.95 11.5C109.78 27.73 104.1 33 98.07 33zm3.3-20.68a4.92 4.92 0 0 0-2.84.97 4.8 4.8 0 0 0-1.72 2.44l-1.42 8.1c-.87 4.8.87 6.77 3.06 6.77 3.2 0 5.2-3.51 6.26-9.28.95-5.16.08-8.97-3.34-8.97v-.03zm19.18 12.02c0 3.86 1.88 5.92 5.48 5.92 1.82 0 4.48-1.25 6.16-2.9l.71 1.6a13.17 13.17 0 0 1-4.26 2.96 13.33 13.33 0 0 1-5.1 1.1c-5.35 0-8.97-3.91-8.97-9.23 0-7.87 6.63-13.85 13-13.85 3.86 0 6.05 2.1 6.05 4.56-.05 3.82-3.72 8.1-13.07 9.84zm6.56-12.1c-2.9 0-5.7 4.17-6.46 10.14 5.85-1.4 8.34-5.32 8.4-7.83 0-1.4-.68-2.3-1.95-2.3h.01zm27.28 20.52a3.7 3.7 0 0 1-2.53-.77 3.59 3.59 0 0 1-1.34-2.25 8 8 0 0 1-2.8 2.38 8.12 8.12 0 0 1-3.6.88c-5.95 0-8.5-5.26-7.3-11.59 1.2-6.32 6.56-11.48 12.74-11.48a9.75 9.75 0 0 1 3.82.76h5.8l-3.1 17.3c-.26 1.37-.16 2.37.86 2.37a4.86 4.86 0 0 0 2.3-1.11v1.56a7.37 7.37 0 0 1-4.85 1.95zm-4.68-20.57c-3.42 0-5.81 4.11-6.72 9.18-.97 5.32-.3 9 2.74 9 2.33 0 4.84-2.81 5.55-6.82l1.88-10.44a5.97 5.97 0 0 0-3.44-.92h-.01zm27.3 3.66c-1.38 0-1.74-1.05-2.14-2.16a2.47 2.47 0 0 0-.93-1.4 2.53 2.53 0 0 0-1.62-.48 3.06 3.06 0 0 0-2.08.67 2.97 2.97 0 0 0-1.08 1.88c-.15 1.36.87 2.51 2.8 4.17l2.6 2.1a6.57 6.57 0 0 1 2.16 2.8c.45 1.11.58 2.32.38 3.5-.65 3.76-3.81 6.07-8.04 6.07-5.1 0-8.35-2.96-8-4.97a2.3 2.3 0 0 1 2.24-1.9c1.33 0 1.83 1 2.24 2.3.27.75.77 1.4 1.45 1.83a3.7 3.7 0 0 0 2.27.58 3.22 3.22 0 0 0 2.18-.72 3.13 3.13 0 0 0 1.13-1.98c.2-1.8-.92-2.9-3-4.77l-2.56-2.2a6.3 6.3 0 0 1-2.02-2.6 6.21 6.21 0 0 1-.42-3.26c.45-2.42 2.74-5.4 7.99-5.4 4.07 0 6.62 2.26 6.39 4.06a1.96 1.96 0 0 1-.6 1.32c-.36.35-.84.55-1.34.56zm18.63-3.14h-4.94l-2.39 13.33c-.51 2.76-.1 4.01 1.43 4.01.8 0 2.09-.45 3.91-2.3l.1 1.95a8.88 8.88 0 0 1-3.01 2.28 9 9 0 0 1-3.7.83c-3.47 0-5.2-2.4-4.38-6.87l2.39-13.23h-3.86l.3-2.06h3.9l1.02-5.97h5.7l-1.07 5.96h4.94l-.34 2.06z" fill="#9C9C9C"/></svg>