<svg width="32" height="32" fill="none" xmlns="http://www.w3.org/2000/svg"><path d="M16 2.7C8.7 2.7 2.7 8.7 2.7 16c0 7.3 6 13.3 13.3 13.3 7.3 0 13.3-6 13.3-13.3 0-7.3-6-13.3-13.3-13.3ZM20.7 21l-5.4-3.4a1.3 1.3 0 0 1-.6-1.1v-6.3a1 1 0 0 1 1-1 1 1 0 0 1 1 1v6l5 3c.6.3.7 1 .4 1.4a1 1 0 0 1-1.4.4Z" fill="url(#a)"/><defs><linearGradient id="a" x1="16" y1="2.7" x2="16" y2="29.3" gradientUnits="userSpaceOnUse"><stop stop-color="#FFBF00"/><stop offset="1" stop-color="#F2A50C"/></linearGradient></defs></svg>