<svg width="32" height="32" fill="none" xmlns="http://www.w3.org/2000/svg"><path d="M16 2.7C10.4 2.7 5.3 7 5.3 13.6c0 4.2 3.3 9.2 9.8 15a1.4 1.4 0 0 0 1.8 0c6.5-5.8 9.8-10.8 9.8-15 0-6.6-5.1-11-10.7-11ZM16 16a2.7 2.7 0 0 1-2.7-2.7c0-1.4 1.2-2.6 2.7-2.6 1.5 0 2.7 1.2 2.7 2.6 0 1.5-1.2 2.7-2.7 2.7Z" fill="url(#a)"/><defs><linearGradient id="a" x1="16" y1="2.7" x2="16" y2="28.9" gradientUnits="userSpaceOnUse"><stop stop-color="#FFBF00"/><stop offset="1" stop-color="#F2A50C"/></linearGradient></defs></svg>