<svg width="32" height="32" fill="none" xmlns="http://www.w3.org/2000/svg"><path d="m25.6 20.3-3.3-.3a2.7 2.7 0 0 0-2.2.7l-2.5 2.5a20 20 0 0 1-8.8-8.8l2.5-2.5c.6-.6.8-1.4.8-2.2l-.4-3.3A2.7 2.7 0 0 0 9 4H6.7A2.6 2.6 0 0 0 4 6.8 22.7 22.7 0 0 0 25.2 28c1.5 0 2.8-1.2 2.8-2.7V23a2.6 2.6 0 0 0-2.4-2.7Z" fill="url(#a)"/><defs><linearGradient id="a" x1="16" y1="4" x2="16" y2="28" gradientUnits="userSpaceOnUse"><stop stop-color="#FFBF00"/><stop offset="1" stop-color="#F2A50C"/></linearGradient></defs></svg>